<svg xmlns="http://www.w3.org/2000/svg" viewBox="0 0 362.18 274.59"><defs><style>.cls-1{fill:#839196;}.cls-2{fill:#a8b6ba;}</style></defs><title>advcash</title><g id="Слой_2" data-name="Слой 2"><g id="Слой_1-2" data-name="Слой 1"><path class="cls-1" d="M151.51,212.21c.8-.07,1.45-.18,2.11-.18,4,0,8,0,12.71,0l-27.21,61.7c-1.7.88-3.35.46-5.49.38L109.44,218l-.81.18v55.19c-5.1-.91-10.11,1.86-15-2.29-4.71,2.68-10.32,3.58-16.24,3.12-10.74-.83-18-6.29-21.58-16.36A40.2,40.2,0,0,1,55.9,230c5.37-14.76,19.58-21.89,34.89-17.71,1.1.3,2.11,1,3.92.69V189.44l13.6-3.54v26h13.84l14.15,37.5ZM94.76,258.49V227.16c-7.32-7.82-22.9-3.83-25.68,8.13a35.53,35.53,0,0,0-.68,12.83C70.13,261.12,84.36,266.72,94.76,258.49Z"/><path class="cls-2" d="M221.56,225.26c-1-3.73-2.54-7-2.41-10.91a41.76,41.76,0,0,1,27.35-1.84c10.48,2.89,13.43,9.84,14.68,19.59,1,7.78.74,15.62.78,23.43,0,4.32.14,8.64,2.94,12.68,2.61-2.81,2.81-6.73,5.24-9.84,4.6,2.81,9.39,5.17,15.12,4.69,2.9-.24,5.19-1,6.41-3.82,1.35-3.08,0-5.54-2.08-7.62-2.27-2.25-5.17-3.56-8.08-4.8A42.66,42.66,0,0,1,270,240c-7.26-6.3-7.23-21.34,3.35-26.13a29.84,29.84,0,0,1,9.51-2.59A34.54,34.54,0,0,1,303,215.5l-3.85,10.57a31,31,0,0,0-10.11-3.65,11.41,11.41,0,0,0-5.39.37c-4.87,1.64-5.88,6.19-2.11,9.61,1.88,1.71,4.26,2.55,6.51,3.62,2.69,1.27,5.5,2.33,8.12,3.74,10.51,5.63,11.07,13,9.74,21.28-1.13,7-9.16,12.54-17.56,13-7.36.39-14.67.53-21.18-3.53C261.47,275.31,255,276.71,249,268c-5.26,5.54-12,6.38-19.16,6.06-14.24-.64-19.18-12.57-17.27-22.25s8.5-16,19.06-17.73c5.2-.87,10.48-2,15.77-.34.65-5-1.49-8.25-6.2-9.74C236.12,222.44,232.1,222.67,221.56,225.26Zm26.39,19.66c-6.48-1.59-12.77-.9-17.2,1.71-5.4,3.2-6.4,11.27-1.83,14.78,5.9,4.53,16.17,1.14,18.4-6A25,25,0,0,0,247.95,244.92Z"/><path class="cls-2" d="M310.26,189.22l13.49-3.28V215.3c3.86-1.57,6.84-3.29,10.35-3.84,12.24-1.89,25.43,3.49,27.39,18.52a115.32,115.32,0,0,1,.67,14.44c.05,9.16,0,18.32-.07,27.48,0,.29-.27.57-.52,1.07H348.8c-1.12-1.27-.59-2.83-.59-4.27,0-10.49-.19-21,0-31.48.13-5.7-1.6-10.14-6.75-12.82s-10-1.22-14.49,1.88c-1,.65-1.81,1.44-3,2.4v43.9c-4.67,1.36-9.07.13-13.73.74C310.26,245.08,310.26,217.34,310.26,189.22Z"/><path class="cls-1" d="M53.86,270c-4.81,6.75-11.23,6-17.18-1.75-8.19,6.95-17.32,7.77-27,4-5.93-2.34-9-7-9.56-13.41C-1,246.25,4.27,238.4,16.34,234.94c5.94-1.7,12-2.72,18.2-1.28,1.07-4.53-1-8-5.85-9.6-5.44-1.79-10.84-1-16.21.38-.95.25-1.88.54-3.09.88-1.68-3.37-2.28-6.9-3.31-10.68,10.87-4.58,21.63-5.08,32.37-.47,4.68,2,7.42,6,8.81,10.87a43.61,43.61,0,0,1,2,12.25c0,6,0,12,0,18C49.28,260.68,50,265.88,53.86,270ZM35,244.75a22.71,22.71,0,0,0-17,2.14c-3.48,1.9-5,6-4.28,9.85A7,7,0,0,0,20,262.88c9.43,1.28,15.56-2.51,15.51-12.34C35.48,248.74,35.86,246.89,35,244.75Z"/><path class="cls-2" d="M212.62,217.19l-5.79,10.64c-5-3.86-10.34-5.73-16.45-4.4-7.66,1.66-12,7-13.31,14.8a29.06,29.06,0,0,0,.51,12.79c3,10.5,12.76,12.93,23,10.37a17.89,17.89,0,0,0,7.11-3.95c2.48,3.37,3.69,7.24,5.32,11.09-10.75,7-22.11,7.25-33.61,3.71-7.38-2.27-12.38-7.77-15-15a39.38,39.38,0,0,1-.62-25.41c5-16.21,20.58-22.08,34.58-20.49A27.08,27.08,0,0,1,212.62,217.19Z"/><polygon class="cls-2" points="257.93 167.66 179.93 0 103.91 167.66 135.36 167.74 179.97 60.8 226.45 167.66 257.93 167.66"/><polygon class="cls-1" points="179.96 60.65 80.69 60.65 96.7 83.54 189.86 83.54 179.96 60.65"/><polygon class="cls-1" points="208.17 60.65 218.75 83.54 263.59 83.54 279.6 60.65 208.17 60.65"/><polygon class="cls-1" points="236.45 121.5 252.58 98.63 225.81 98.63 236.45 121.5"/><polygon class="cls-1" points="196.42 98.63 107.7 98.63 123.71 121.51 206.38 121.51 196.42 98.63"/></g></g></svg>