<svg xmlns="http://www.w3.org/2000/svg" viewBox="0 0 110.6 42.27"><defs><style>.cls-1{fill:#839196;}.cls-2{fill:#a8b6ba;}</style></defs><title>Ресурс 1</title><g id="Слой_2" data-name="Слой 2"><g id="Режим_изоляции" data-name="Режим изоляции"><rect class="cls-1" x="2.43" y="11.48" width="41.5" height="2.21"/><rect class="cls-2" x="2.43" y="34.44" width="41.5" height="2.21"/><rect class="cls-1" x="6.08" y="15.12" width="5.5" height="17.88"/><rect class="cls-2" x="15.63" y="15.12" width="5.5" height="17.88"/><rect class="cls-2" x="25.18" y="15.12" width="5.5" height="17.88"/><rect class="cls-1" x="34.72" y="15.12" width="5.5" height="17.88"/><rect class="cls-1" y="38.63" width="46.35" height="3.64"/><polygon class="cls-1" points="43.93 9.27 2.42 9.27 23.18 0 43.93 9.27"/><polygon class="cls-1" points="65.96 25.78 63.89 25.78 61.59 34.45 61.53 34.45 59.83 25.78 57.18 25.78 60.17 38.58 62.55 38.58 64.9 30.15 64.95 30.15 67.31 38.58 69.69 38.58 72.68 25.78 70.03 25.78 68.33 34.46 68.28 34.46 65.96 25.78"/><rect class="cls-1" x="77.82" y="25.78" width="2.57" height="12.8"/><path class="cls-1" d="M95.83,37.53a4.58,4.58,0,0,1-.15-1.12v-.94a3.54,3.54,0,0,0-.5-1.93,2.75,2.75,0,0,0-1.63-1.12,3.65,3.65,0,0,0,1.52-1.16,2.81,2.81,0,0,0,.52-1.7,3.38,3.38,0,0,0-1.23-2.78,5.3,5.3,0,0,0-3.42-1H86.52v12.8h2.57V33.46h2a2,2,0,0,1,1.48.53,2,2,0,0,1,.52,1.49v.91a8,8,0,0,0,.1,1.26,1.42,1.42,0,0,0,.45.93h2.65v-.18A1.54,1.54,0,0,1,95.83,37.53ZM92.52,31a2.4,2.4,0,0,1-1.61.46H89.09V27.76H91a2.15,2.15,0,0,1,1.56.52,1.86,1.86,0,0,1,.53,1.4A1.7,1.7,0,0,1,92.52,31Z"/><polygon class="cls-1" points="108.9 30.98 104.16 30.98 104.16 27.76 109.78 27.76 109.78 25.78 101.59 25.78 101.59 38.58 109.8 38.58 109.8 36.61 104.16 36.61 104.16 32.95 108.9 32.95 108.9 30.98"/><path class="cls-1" d="M67.18,10.11a2.75,2.75,0,0,0-1.8-1,2.72,2.72,0,0,0,1.79-2.62A3,3,0,0,0,65.9,3.83a6.09,6.09,0,0,0-3.52-.88H58.19v12.8h4.95a5.48,5.48,0,0,0,3.44-.95A3.31,3.31,0,0,0,67.78,12,3.11,3.11,0,0,0,67.18,10.11ZM60.75,4.93h1.63A2.74,2.74,0,0,1,64,5.35a1.54,1.54,0,0,1,.56,1.31A1.45,1.45,0,0,1,64,7.89a2.57,2.57,0,0,1-1.58.42H60.75Zm3.94,8.41a2.39,2.39,0,0,1-1.56.44H60.75V10.09H63.1a2.23,2.23,0,0,1,1.59.5A1.88,1.88,0,0,1,65.22,12,1.61,1.61,0,0,1,64.69,13.33Z"/><path class="cls-1" d="M77.74,2.95H75.11l-4.32,12.8h2.68L74.34,13h4.15l.87,2.76H82ZM75,11l1.42-4.51h.05L77.86,11Z"/><polygon class="cls-1" points="95.77 2.95 93.2 2.95 93.2 11.56 93.15 11.57 87.99 2.95 85.43 2.95 85.43 15.74 87.99 15.74 87.99 7.12 88.05 7.11 93.2 15.74 95.77 15.74 95.77 2.95"/><polygon class="cls-1" points="107.33 15.74 110.6 15.74 105.82 8.9 110.25 2.95 107.08 2.95 103.57 8.18 102.85 8.18 102.85 2.95 100.29 2.95 100.29 15.74 102.85 15.74 102.85 10.4 103.79 10.4 107.33 15.74"/></g></g></svg>