<svg xmlns="http://www.w3.org/2000/svg" width="19" viewBox="0 0 453.29 512"><defs><style>.cls-1{fill:url(#Безымянный_градиент_12);}</style><linearGradient id="Безымянный_градиент_12" x1="17.54" y1="497.16" x2="448.62" y2="66.08" gradientUnits="userSpaceOnUse"><stop offset="0" stop-color="#d7ad3c"/><stop offset="1" stop-color="#d77e3c"/></linearGradient></defs><title>footer_Present</title><g id="Слой_2" data-name="Слой 2"><g id="Capa_1" data-name="Capa 1"><path class="cls-1" d="M357.93,155.85A203.55,203.55,0,0,0,384,134c16.9-16.9,28.2-37.69,31.82-58.55,4-22.86-1.85-44.08-16-58.23C388.5,6,373.22,0,355.59,0,330.48,0,304,12.05,283,33.07c-33.63,33.63-53.23,80.05-63.78,113.18C211.42,113,195.85,68,165.59,37.75c-16.23-16.23-37-24.57-56.58-24.57-16,0-31.25,5.57-42.63,16.94C41.1,55.41,44.51,99.83,74,129.33a162.84,162.84,0,0,0,35.77,26.52H0V285.36H32.38V512H420.91V285.35h32.38V155.84H357.93Zm-49.17-97c14-14,31.53-22.4,46.82-22.4,5.42,0,13,1.15,18.44,6.58,13.17,13.17,5.78,43.66-15.82,65.26-22.23,22.23-52.14,37.52-78.13,47.59H254.44C263.83,126.73,280.77,86.81,308.76,58.82ZM86,75.35c-.36-4.61,0-13.28,6.17-19.47,5.18-5.18,12-6.27,16.87-6.27h0c10.75,0,22,5.06,30.82,13.9,17.14,17.13,31.25,44.4,40.81,78.86.26.93.51,1.85.76,2.77-.92-.24-1.84-.5-2.77-.76-34.46-9.56-61.72-23.67-78.86-40.81C91.76,95.57,86.73,85.28,86,75.35Zm108.3,404.27H64.76V284H194.27Zm0-226.64H32.38V188.22H194.27ZM388.53,479.62H259V284H388.53ZM420.91,253H259V188.22H420.91Z"/></g></g></svg>