<svg xmlns="http://www.w3.org/2000/svg" viewBox="0 0 45 45"><defs><style>.cls-1{fill:#666;}.cls-2{fill:#363636;}.cls-3{fill:#f2f2f2;}</style></defs><title>Ресурс 1</title><g id="Слой_2" data-name="Слой 2"><g id="Слой_1-2" data-name="Слой 1"><circle class="cls-1" cx="22.5" cy="22.5" r="22.5"/><path class="cls-2" d="M34.42,21c.44-6.16-.83-12-4.77-14-3-2-10-2-14,0-4.79,3.19-5.76,8.61-5.19,14,.19,1,0,3.13.19,4,.15.67.94,1.25,1,1.92C12,32,15.65,37,15.65,37v6.93a22.44,22.44,0,0,0,13,.21V37c2.17-2.17,3.94-6.16,5-10.57.16-.72.93-1.45,1-2.19C34.83,23.16,34.34,22.08,34.42,21Z"/><path class="cls-3" d="M22.5,20.09A8.66,8.66,0,0,1,30,24.42,8.66,8.66,0,0,1,22.5,20.09Z"/><ellipse class="cls-3" cx="22.5" cy="15.76" rx="1.16" ry="4.33"/><path class="cls-3" d="M22.5,20.09A8.66,8.66,0,0,1,15,24.42,8.66,8.66,0,0,1,22.5,20.09Z"/></g></g></svg>