<svg xmlns="http://www.w3.org/2000/svg" viewBox="0 0 1237.67 416.91"><defs><style>.cls-1,.cls-5{fill:#839196;}.cls-2{fill:#a8b6ba;}.cls-3{fill:#67767a;}.cls-4{fill:#96a7aa;}.cls-5{font-size:153.8px;font-family:Roboto-Regular, Roboto;letter-spacing:0.2em;}.cls-6{letter-spacing:0.19em;}.cls-7{letter-spacing:0.2em;}</style></defs><title>ethereum</title><g id="Слой_2" data-name="Слой 2"><g id="Слой_1-2" data-name="Слой 1"><polygon class="cls-1" points="127.96 0 125.17 9.5 125.17 285.17 127.96 287.96 255.92 212.32 127.96 0"/><polygon class="cls-2" points="127.96 0 0 212.32 127.96 287.96 127.96 154.16 127.96 0"/><polygon class="cls-1" points="127.96 312.19 126.39 314.11 126.39 412.31 127.96 416.91 256 236.59 127.96 312.19"/><polygon class="cls-2" points="127.96 416.9 127.96 312.19 0 236.59 127.96 416.9"/><polygon class="cls-3" points="127.96 287.96 255.92 212.32 127.96 154.16 127.96 287.96"/><polygon class="cls-4" points="0 212.32 127.96 287.96 127.96 154.16 0 212.32"/><text class="cls-5" transform="translate(342.01 260.15)">ethe<tspan class="cls-6" x="420.95" y="0">r</tspan><tspan class="cls-7" x="502.32" y="0">eum</tspan></text></g></g></svg>