<?xml version="1.0" encoding="utf-8"?>
<!-- Generator: Adobe Illustrator 22.1.0, SVG Export Plug-In . SVG Version: 6.00 Build 0)  -->
<svg version="1.1" id="Слой_1" xmlns="http://www.w3.org/2000/svg" xmlns:xlink="http://www.w3.org/1999/xlink" x="0px" y="0px"
	 viewBox="0 0 399.1 199.2" style="enable-background:new 0 0 399.1 199.2;" xml:space="preserve">
<style type="text/css">
	.st0{fill:#FFFFFF;}
</style>
<title>Post_Eye</title>
<path class="st0" d="M399.1,102.7v1c-6.2,4.9-12.7,9.4-18.5,14.7c-8.5,7.7-16,16.5-24.9,23.8c-38.5,31.6-82.3,51-132.2,55.7
	c-26.5,2.5-52.8,1.4-78.7-4.7c-51.1-12-94-38.1-129.4-76.8c-4.6-5.1-10.2-9.3-15.4-14c7.4-11.6,28.1-33.6,47-49
	c42.9-35,92.9-51,147.4-53.3c16.2-0.7,32.8,2,48.9,4.7c49.6,8.4,92.2,30.6,127.6,66.4C380.9,81.2,389.8,92.2,399.1,102.7z
	 M34.8,99.3c92.6,104,249.3,93.2,328.3,0.1C333.7,67,298.4,44.3,254.5,32.8c10.8,16,15.6,32.5,14,50.6c-1.4,17.6-9.1,34.1-21.8,46.4
	c-21.9,21.7-56.4,28.6-83.6,13.7c-44.7-24.5-51.5-61.9-31.8-107.1C93.3,49,61.3,69.6,34.8,99.3z M146.4,73.8
	c-0.5,15.2,8.8,22.4,19.6,21.9c7.6-0.3,11.1-4,11.1-11.7c0-8,0.1-15.6,4.4-23.1c2.7-4.7,3.4-11.1-0.7-16s-9.9-6.3-16.3-4.7
	c-7.6,1.9-12,7.3-14.2,14.1C148.3,60.6,147.6,67.3,146.4,73.8z"/>
</svg>
