<svg xmlns="http://www.w3.org/2000/svg" viewBox="0 0 373.67 494.04"><defs><style>.cls-1{fill:#605ca9;}</style></defs><title>Bitbon_logo </title><g id="Слой_2" data-name="Слой 2"><g id="Слой_1-2" data-name="Слой 1"><path class="cls-1" d="M199,0c0,.67,0,1.33,0,2q0,97.43,0,194.87v1.92c.38.05.67.11,1,.13s.53,0,.8,0c16.75,0,33.5,0,50.25,0,33,0,60.86,12,83.86,35.45,15.48,15.76,26.06,34.49,32.57,55.55a134.4,134.4,0,0,1,5.63,28.69c.28,3.36.47,6.74.49,10.11.06,11.51,0,23,0,34.52A130.08,130.08,0,0,1,371,389.19a139.81,139.81,0,0,1-20.07,49.43A124.25,124.25,0,0,1,310,478.37a110.48,110.48,0,0,1-40,14.35A108.56,108.56,0,0,1,253.55,494H0v-37.5c.4,0,.74-.09,1.08-.1s.89,0,1.33,0q124,0,247.92.05c23.26,0,42.62-8.57,58.63-25.09,11.92-12.3,19.62-27,23.9-43.54a101.7,101.7,0,0,0,3.26-25.43c0-10.62.07-21.24,0-31.86a101.09,101.09,0,0,0-16.56-55.64,86.09,86.09,0,0,0-32.42-29.78,73.61,73.61,0,0,0-26.2-8.06,89.19,89.19,0,0,0-9-.47c-7.2-.07-14.39,0-21.59,0l-29.72.06h-1.48V415.08H161.68l-.1-.12a.33.33,0,0,1-.08-.11,1.65,1.65,0,0,1,0-.26c0-.09,0-.18,0-.27s0-.18,0-.27q0-88.37,0-176.74c0-.09,0-.18,0-.27a.71.71,0,0,0,0-.13l0-.13c-.94-.27-38.43-.38-40.57-.11a.48.48,0,0,0-.11.07.45.45,0,0,0-.06.12.79.79,0,0,0,0,.12.82.82,0,0,0,0,.13c0,.09,0,.18,0,.27s0,.18,0,.27,0,.18,0,.27q0,88.1,0,176.21c0,.09,0,.18,0,.27s0,.09,0,.13,0,.09,0,.13a.68.68,0,0,1,0,.13.7.7,0,0,1-.06.12c-.93.29-35.57.39-37.5.07V236.64H55.57c-.33-1-.46-35.16-.16-37.66H82.93v-2.14q0-97.43,0-194.87c0-.66.08-1.32.13-2h37.59c0,.57-.08,1.15-.08,1.72q0,30.12,0,60.24,0,67.51,0,135v1.79c1.84.32,39.91.23,40.89-.09V197q0-97.76,0-195.52c0-.49,0-1,0-1.47Z"/></g></g></svg>