<svg xmlns="http://www.w3.org/2000/svg" viewBox="0 0 240.99 151.48"><defs><style>.cls-1{fill:#839196;}.cls-2{fill:#a1acaf;}</style></defs><title>bitcoin</title><g id="Слой_2" data-name="Слой 2"><g id="Слой_1-2" data-name="Слой 1"><path class="cls-1" d="M117,40.49l-2.41,9.67c3,.74,12.16,3.69,13.51-1.77C129.53,42.7,120,41.23,117,40.49Z"/><path class="cls-1" d="M120.29,27.29l-2.19,8.77c2.48.62,10.12,3.14,11.36-1.82C130.76,29.07,122.77,27.91,120.29,27.29Z"/><path class="cls-1" d="M130.17,1.2a40,40,0,1,0,29.14,48.5A40,40,0,0,0,130.17,1.2Zm8,33.12c-.58,3.9-2.74,5.79-5.61,6.45,3.94,2.05,5.95,5.2,4,10.65-2.37,6.77-8,7.34-15.49,5.93l-1.82,7.28-4.39-1.09,1.79-7.18c-1.14-.28-2.3-.58-3.5-.91l-1.8,7.22L107,61.56l1.82-7.3-3.13-.81L100,52l2.18-5s3.23.86,3.19.8a1.6,1.6,0,0,0,2-1l2.87-11.51.46.11a3.57,3.57,0,0,0-.46-.15l2-8.22a2.34,2.34,0,0,0-2-2.55c.07,0-3.19-.79-3.19-.79L108.2,19l6.05,1.51v0c.91.23,1.85.44,2.8.66l1.8-7.21L123.24,15l-1.76,7.07c1.18.27,2.36.54,3.52.83l1.75-7L131.14,17l-1.8,7.21C134.88,26.13,138.94,29,138.14,34.32Z"/><path class="cls-1" d="M28.26,106.85A15.28,15.28,0,0,1,35,108.22,13.53,13.53,0,0,1,39.69,112a15.69,15.69,0,0,1,2.75,5.51,25.16,25.16,0,0,1,.89,6.8,27.27,27.27,0,0,1-2.06,10.57,27.43,27.43,0,0,1-5.63,8.67,26.47,26.47,0,0,1-8.42,5.82,25.71,25.71,0,0,1-10.52,2.15l-2.56,0a37.39,37.39,0,0,1-4.17-.36,48.88,48.88,0,0,1-5-1,25,25,0,0,1-5-1.78L14,89.44l12.55-1.95-5,20.89a19.51,19.51,0,0,1,3.24-1.13,14.37,14.37,0,0,1,3.48-.41ZM17.74,141.52a11,11,0,0,0,5.34-1.38,14.06,14.06,0,0,0,4.34-3.69,18.58,18.58,0,0,0,2.87-5.23,17.79,17.79,0,0,0,1.05-6.08,12,12,0,0,0-1.3-6.07c-.86-1.45-2.46-2.19-4.78-2.19a15,15,0,0,0-3,.4A7.37,7.37,0,0,0,19,119l-5.34,22.19.85.16a6.34,6.34,0,0,0,.76.12,9,9,0,0,0,1,0Z"/><path class="cls-1" d="M56.34,150.35h-12l10.12-42.6H66.55Zm5.83-47.79a7.44,7.44,0,0,1-4.54-1.5,5.29,5.29,0,0,1-2-4.58,7.62,7.62,0,0,1,.69-3.2,8.55,8.55,0,0,1,1.83-2.59A9,9,0,0,1,60.75,89a8,8,0,0,1,3.2-.64,7.44,7.44,0,0,1,4.53,1.5,5.34,5.34,0,0,1,2,4.58,7.57,7.57,0,0,1-.69,3.2A8.43,8.43,0,0,1,68,100.18a8.8,8.8,0,0,1-2.63,1.74,7.9,7.9,0,0,1-3.2.64Z"/><path class="cls-1" d="M77.05,97.14l12.55-1.95-3.08,12.56H100l-2.43,9.88H84.18l-3.56,14.9a16.83,16.83,0,0,0-.57,3.48,6.36,6.36,0,0,0,.4,2.8,3.51,3.51,0,0,0,1.74,1.82,8,8,0,0,0,3.6.65,19.17,19.17,0,0,0,3.77-.37,26.74,26.74,0,0,0,3.68-1l.89,9.24a42.91,42.91,0,0,1-5.26,1.53,30.25,30.25,0,0,1-6.72.65q-5.59,0-8.67-1.65a9.62,9.62,0,0,1-4.37-4.54,14.43,14.43,0,0,1-1.13-6.6,42.68,42.68,0,0,1,1.13-7.86Z"/><path class="cls-2" d="M99.44,133.34A29.94,29.94,0,0,1,101.22,123a25.52,25.52,0,0,1,5.11-8.51,23.91,23.91,0,0,1,8.06-5.75A25.75,25.75,0,0,1,125,106.61a27.86,27.86,0,0,1,6.52.69,26.37,26.37,0,0,1,5.23,1.82l-4.13,9.4c-1.08-.44-2.2-.82-3.36-1.17a14.62,14.62,0,0,0-4.25-.53,11.88,11.88,0,0,0-9.52,4.13q-3.52,4.13-3.53,11.1a11.41,11.41,0,0,0,1.79,6.68q1.78,2.55,6.56,2.55a21,21,0,0,0,4.54-.48,22.35,22.35,0,0,0,3.89-1.21l.9,9.64a43.38,43.38,0,0,1-5,1.58,27.92,27.92,0,0,1-6.56.68,22.14,22.14,0,0,1-8.5-1.45,16.2,16.2,0,0,1-5.75-3.93,14.81,14.81,0,0,1-3.28-5.8,23.8,23.8,0,0,1-1-7Z"/><path class="cls-2" d="M152.69,151.48a19.61,19.61,0,0,1-7.45-1.3,13.76,13.76,0,0,1-5.22-3.64A15.74,15.74,0,0,1,136.9,141a22.41,22.41,0,0,1-1-7.08,31.27,31.27,0,0,1,1.57-9.73,27.56,27.56,0,0,1,4.66-8.74,24.91,24.91,0,0,1,7.53-6.37,20.71,20.71,0,0,1,10.2-2.47,19.7,19.7,0,0,1,7.42,1.3,13.86,13.86,0,0,1,5.26,3.64,15.79,15.79,0,0,1,3.11,5.55,22.46,22.46,0,0,1,1.05,7.08,32.33,32.33,0,0,1-1.53,9.72,28.08,28.08,0,0,1-4.54,8.74A23.77,23.77,0,0,1,163.1,149a21.25,21.25,0,0,1-10.41,2.47Zm6-34.66a7.57,7.57,0,0,0-4.69,1.54,13.24,13.24,0,0,0-3.4,3.89,19.2,19.2,0,0,0-2.07,5.14,22.18,22.18,0,0,0-.68,5.3,12.93,12.93,0,0,0,1.29,6.32c.87,1.51,2.43,2.27,4.7,2.27a7.54,7.54,0,0,0,4.7-1.54,13.27,13.27,0,0,0,3.4-3.89A19.24,19.24,0,0,0,164,130.7a22.47,22.47,0,0,0,.68-5.3,12.82,12.82,0,0,0-1.3-6.32q-1.29-2.26-4.7-2.27Z"/><path class="cls-2" d="M189.72,150.35h-12l10.12-42.6h12.08Zm5.82-47.79a7.42,7.42,0,0,1-4.53-1.5,5.31,5.31,0,0,1-2-4.58,7.6,7.6,0,0,1,.69-3.2,8.42,8.42,0,0,1,1.82-2.59A9,9,0,0,1,194.13,89a8,8,0,0,1,3.19-.64,7.44,7.44,0,0,1,4.54,1.5,5.34,5.34,0,0,1,2,4.58,7.68,7.68,0,0,1-.7,3.2,8.42,8.42,0,0,1-1.82,2.59,8.89,8.89,0,0,1-2.63,1.74A7.92,7.92,0,0,1,195.55,102.56Z"/><path class="cls-2" d="M208.56,109.69c.91-.27,1.93-.59,3-.93s2.35-.67,3.73-1a44.69,44.69,0,0,1,4.61-.73,51.85,51.85,0,0,1,5.78-.29q9.48,0,13.09,5.51t1.26,15.06l-5.51,23H222.49l5.34-22.52c.33-1.4.58-2.77.77-4.09a9.7,9.7,0,0,0,0-3.48,4.17,4.17,0,0,0-1.49-2.43,5.79,5.79,0,0,0-3.61-.93,24.36,24.36,0,0,0-4.78.49l-7.86,33H198.76Z"/></g></g></svg>