<?xml version="1.0" encoding="utf-8"?>
<!-- Generator: Adobe Illustrator 21.0.2, SVG Export Plug-In . SVG Version: 6.00 Build 0)  -->
<svg version="1.1" id="Слой_1" xmlns="http://www.w3.org/2000/svg" xmlns:xlink="http://www.w3.org/1999/xlink" x="0px" y="0px"
	 viewBox="0 0 34 42.4" style="enable-background:new 0 0 34 42.4;" xml:space="preserve">
<style type="text/css">
	.st0{fill:url(#Прямоугольник_скругл._углы1105_1_);stroke:#6661B9;}
	.st1{fill:#6661B9;}
	.st2{fill:#DDE3E9;stroke:#6661B9;stroke-linecap:round;stroke-linejoin:round;stroke-miterlimit:10;}
	.st3{fill:#DDE3E9;stroke:#6661B9;}
</style>
<g>
	
		<linearGradient id="Прямоугольник_скругл._углы1105_1_" gradientUnits="userSpaceOnUse" x1="17" y1="6.5" x2="17" y2="44.5" gradientTransform="matrix(1 0 0 -1 0 45)">
		<stop  offset="0" style="stop-color:#3936C8;stop-opacity:0.502"/>
		<stop  offset="1" style="stop-color:#7436C8;stop-opacity:0.302"/>
	</linearGradient>
	<path id="Прямоугольник_скругл._углы1105" class="st0" d="M20.2,38.5H3.5c-1.7,0-3-1.3-3-3v-32
		c0-1.7,1.3-3,3-3h27c1.7,0,3,1.3,3,3v32c0,1.6-1.3,3-3,3H20.2z"/>
	<path id="Прямоугольник_1" class="st1" d="M27.3,20.1h-4.1c-0.4,0-0.7-0.3-0.7-0.7c0-0.4,0.3-0.7,0.7-0.7h4.1
		c0.4,0,0.7,0.3,0.7,0.7C28,19.8,27.7,20.1,27.3,20.1z M25.9,15.9H19c-0.4,0-0.7-0.3-0.7-0.7c0-0.4,0.3-0.7,0.7-0.7h6.9
		c0.4,0,0.7,0.3,0.7,0.7C26.6,15.6,26.3,15.9,25.9,15.9z M21.8,11.7h-1.4c-0.4,0-0.7-0.3-0.7-0.7c0-0.4,0.3-0.7,0.7-0.7h1.4
		c0.4,0,0.7,0.3,0.7,0.7C22.5,11.4,22.2,11.7,21.8,11.7z M17.7,11.7h-5.5c-0.4,0-0.7-0.3-0.7-0.7c0-0.4,0.3-0.7,0.7-0.7h5.5
		c0.4,0,0.7,0.3,0.7,0.7C18.4,11.4,18.1,11.7,17.7,11.7L17.7,11.7z M9.4,11.7H6.7C6.3,11.7,6,11.4,6,11c0-0.4,0.3-0.7,0.7-0.7h2.8
		c0.4,0,0.7,0.3,0.7,0.7C10.1,11.4,9.8,11.7,9.4,11.7L9.4,11.7z M8.7,27.1c0.7,0,1.3,0.3,1.7,0.8c0.5,1.1,0.6,2.3,0.3,3.5
		c0.3-0.2,0.7-0.3,1-0.2c0.3,0.1,0.5,0.4,0.5,0.7c0.4-0.3,0.9-0.5,1.4-0.6c0.3,0,0.7,0.2,0.8,0.5c0.2,0.3,0.2,0.6,0.1,0.9h1.8
		c0.4,0,0.7,0.3,0.7,0.7s-0.3,0.7-0.7,0.7l0,0h-2.8c-0.2,0-0.5-0.1-0.6-0.3c-0.1-0.2-0.1-0.5,0-0.7c0,0,0,0,0,0
		c-0.3,0.3-0.7,0.5-1,0.9c-0.2,0.2-0.5,0.3-0.8,0.2c-0.3-0.1-0.4-0.4-0.4-0.6v-0.3c-0.3,0.2-0.6,0.5-0.9,0.8C9.7,34.1,9.3,34.2,9,34
		c-0.3-0.2-0.4-0.5-0.3-0.8c0.5-1.4,1-3.7,0.5-4.4c-0.1-0.2-0.3-0.3-0.5-0.2c-0.5,0-0.9,0.2-1.2,0.6C7.1,29.8,7.3,31,8,32.4
		c0.2,0.3,0,0.8-0.3,0.9c-0.3,0.2-0.7,0-0.9-0.3c0,0,0,0,0,0c-0.9-1.9-1-3.6-0.4-4.7C6.9,27.5,7.8,27.1,8.7,27.1z M21.1,19.4
		c0,0.4-0.3,0.7-0.7,0.7c0,0,0,0,0,0h-6.9c-0.4,0-0.7-0.3-0.7-0.7c0-0.4,0.3-0.7,0.7-0.7h6.9C20.8,18.7,21.1,19,21.1,19.4
		C21.1,19.4,21.1,19.4,21.1,19.4z M6.7,14.5h9.6c0.4,0,0.7,0.3,0.7,0.7c0,0.4-0.3,0.7-0.7,0.7H6.7c-0.4,0-0.7-0.3-0.7-0.7
		C6,14.8,6.3,14.5,6.7,14.5z M6.7,22.9h8.3c0.4,0,0.7,0.3,0.7,0.7c0,0.4-0.3,0.7-0.7,0.7H6.7C6.3,24.3,6,24,6,23.6
		C6,23.2,6.3,22.9,6.7,22.9z M6.7,18.7h4.1c0.4,0,0.7,0.3,0.7,0.7c0,0.4-0.3,0.7-0.7,0.7H6.7c-0.4,0-0.7-0.3-0.7-0.7
		C6,19,6.3,18.7,6.7,18.7z M17.7,22.9h6.9c0.4,0,0.7,0.3,0.7,0.7c0,0.4-0.3,0.7-0.7,0.7h-6.9c-0.4,0-0.7-0.3-0.7-0.7
		S17.3,22.9,17.7,22.9L17.7,22.9z"/>
	<g>
		<polyline class="st2" points="22,36.4 19.6,40.6 21.6,40.5 22.3,41.9 24.6,36.8 		"/>
		<polyline class="st2" points="28.8,36.4 31.3,40.6 29.3,40.5 28.6,41.9 26.2,36.8 		"/>
	</g>
	<circle class="st3" cx="25.4" cy="32.5" r="3"/>
</g>
</svg>
