<?xml version="1.0" encoding="utf-8"?>
<!-- Generator: Adobe Illustrator 21.0.2, SVG Export Plug-In . SVG Version: 6.00 Build 0)  -->
<svg version="1.1" id="Слой_1" xmlns="http://www.w3.org/2000/svg" xmlns:xlink="http://www.w3.org/1999/xlink" x="0px" y="0px"
	 viewBox="0 0 26 31" style="enable-background:new 0 0 26 31;" xml:space="preserve">
<style type="text/css">
	.st0{fill:url(#Прямоугольник_скругл._углы1105_1_);stroke:#6661B9;}
	.st1{fill:#6661B9;}
	.st2{opacity:0.7;fill:none;stroke:#6661B9;enable-background:new    ;}
</style>
<g>
	
		<linearGradient id="Прямоугольник_скругл._углы1105_1_" gradientUnits="userSpaceOnUse" x1="12" y1="1077.5" x2="12" y2="1049.5" gradientTransform="matrix(1 0 0 1 0 -1047)">
		<stop  offset="0" style="stop-color:#3936C8;stop-opacity:0.502"/>
		<stop  offset="1" style="stop-color:#7436C8;stop-opacity:0.302"/>
	</linearGradient>
	<path id="Прямоугольник_скругл._углы1105" class="st0" d="M3.5,2.5h17c1.7,0,3,1.3,3,3v22c0,1.7-1.3,3-3,3
		h-17c-1.7,0-3-1.3-3-3v-22C0.5,3.8,1.8,2.5,3.5,2.5z"/>
	<path id="Прямоугольник_1_копия_3" class="st1" d="M19.6,16.5h-3.1c-0.3,0-0.5-0.3-0.5-0.6
		c0-0.3,0.2-0.5,0.5-0.5h3.1c0.3,0,0.5,0.3,0.5,0.6C20.1,16.3,19.9,16.5,19.6,16.5z M18.5,13.3h-5.2c-0.3,0-0.5-0.2-0.5-0.5
		s0.2-0.5,0.5-0.5h5.2c0.3,0,0.5,0.2,0.5,0.5C19.1,13.1,18.8,13.3,18.5,13.3z M15.4,10.1h-1c-0.3,0-0.5-0.3-0.5-0.6S14.1,9,14.4,9h1
		c0.3,0,0.5,0.3,0.5,0.6C15.9,9.8,15.7,10.1,15.4,10.1z M12.3,10.1H8.1c-0.3,0-0.5-0.3-0.5-0.6C7.6,9.2,7.9,9,8.1,9h4.2
		c0.3,0,0.5,0.3,0.5,0.6C12.8,9.8,12.6,10.1,12.3,10.1L12.3,10.1z M6.1,10.1H4c-0.3,0-0.5-0.3-0.5-0.6S3.7,9,4,9h2.1
		c0.3,0,0.5,0.3,0.5,0.6C6.6,9.8,6.3,10.1,6.1,10.1z M13.5,22.9c0.5,0,1,0.2,1.3,0.6c0.4,0.8,0.5,1.8,0.2,2.7
		c0.2-0.2,0.5-0.2,0.8-0.1c0.2,0.1,0.3,0.3,0.4,0.5c0.3-0.2,0.7-0.4,1-0.5c0.3,0,0.5,0.1,0.6,0.3c0.1,0.2,0.1,0.5,0.1,0.7h1.4
		c0.3,0,0.5,0.3,0.5,0.6c0,0.3-0.2,0.5-0.5,0.5h-2.1c-0.2,0-0.4-0.1-0.4-0.3c-0.1-0.2-0.1-0.4,0-0.5l0,0c-0.3,0.2-0.5,0.4-0.7,0.7
		c-0.1,0.2-0.4,0.2-0.6,0.1c-0.2-0.1-0.3-0.3-0.3-0.5v-0.3c-0.2,0.2-0.5,0.4-0.7,0.6s-0.4,0.2-0.6,0.1c-0.2-0.1-0.3-0.4-0.2-0.6
		c0.4-1.1,0.8-2.8,0.4-3.4c-0.1-0.1-0.2-0.2-0.4-0.2c-0.4,0-0.7,0.1-0.9,0.4c-0.3,0.9-0.2,1.8,0.3,2.5c0.1,0.3,0,0.6-0.2,0.7
		c-0.3,0.1-0.6,0-0.7-0.2l0,0c-0.7-1.1-0.8-2.4-0.3-3.6C12.1,23.2,12.8,22.8,13.5,22.9z M14.9,16c0,0.3-0.2,0.5-0.5,0.5l0,0H9.2
		c-0.3,0-0.5-0.3-0.5-0.6c0-0.3,0.2-0.5,0.5-0.5h5.2C14.7,15.4,14.9,15.7,14.9,16L14.9,16z M4,12.2h7.3c0.3,0,0.5,0.2,0.5,0.5
		s-0.2,0.5-0.5,0.5H4c-0.3,0-0.5-0.2-0.5-0.5S3.7,12.2,4,12.2L4,12.2z M4,18.7h6.2c0.3,0,0.5,0.2,0.5,0.5s-0.2,0.5-0.5,0.5H4
		c-0.3,0-0.5-0.2-0.5-0.5C3.4,18.9,3.7,18.7,4,18.7L4,18.7z M4,15.4h3.1c0.3,0,0.5,0.3,0.5,0.6c0,0.3-0.2,0.5-0.5,0.5H4
		c-0.3,0-0.5-0.3-0.5-0.6C3.5,15.7,3.7,15.5,4,15.4z M12.5,18.5l5,0.2c0.3,0,0.5,0.2,0.5,0.5s-0.2,0.5-0.5,0.5l0,0h-5.2
		c-0.3,0-0.5-0.2-0.5-0.5l0,0C11.9,18.8,12.1,18.6,12.5,18.5z"/>
	<path id="Фигура_1107" class="st2" d="M2.5,2.5L2.5,2.5c0-1.1,0.9-2,2-2h16.9c2.3,0,4.1,1.8,4.1,4.1v20.9c0,1.1-0.9,2-2,2
		l0,0"/>
</g>
</svg>
