<?xml version="1.0" encoding="utf-8"?>
<!-- Generator: Adobe Illustrator 21.0.2, SVG Export Plug-In . SVG Version: 6.00 Build 0)  -->
<svg version="1.1" id="Слой_1" xmlns="http://www.w3.org/2000/svg" xmlns:xlink="http://www.w3.org/1999/xlink" x="0px" y="0px"
	 viewBox="0 0 40 31.7" style="enable-background:new 0 0 40 31.7;" xml:space="preserve">
<style type="text/css">
	.st0{fill:url(#Прямоугольник_скругл._углы1106_1_);stroke:#6661B9;}
	.st1{fill:none;stroke:#6661B9;}
</style>
<g>
	
		<linearGradient id="Прямоугольник_скругл._углы1106_1_" gradientUnits="userSpaceOnUse" x1="2.3483" y1="106.309" x2="24.3483" y2="128.309" gradientTransform="matrix(1 0 0 -1 0 138.3147)">
		<stop  offset="0" style="stop-color:#3936C8;stop-opacity:0.502"/>
		<stop  offset="1" style="stop-color:#7436C8;stop-opacity:0.302"/>
	</linearGradient>
	<path id="Прямоугольник_скругл._углы1106" class="st0" d="M11,7.2c4.1,0,7.5,3.4,7.5,7.5s-3.4,7.5-7.5,7.5
		s-7.5-3.4-7.5-7.5S6.9,7.2,11,7.2z M0.5,31.2v-2c0-2.8,2.2-5,5-5h12c2.8,0,5,2.2,5,5v2h-20H0.5z"/>
	<path id="Фигура_57" class="st1" d="M25.2,2.2l-5,4l5,4"/>
	<path id="Фигура_58" class="st1" d="M31.2,0.2l-4,12.1"/>
	<path id="Фигура_57_копия_4" class="st1" d="M34.2,2.2l5,4l-5,4"/>
	<path id="Фигура_59" class="st1" d="M22.2,15.2h9"/>
	<path id="Фигура_60" class="st1" d="M33.2,15.2h4"/>
	<path id="Фигура_61" class="st1" d="M22.2,18.3h7"/>
	<path id="Фигура_62" class="st1" d="M31.2,18.3h4"/>
	<path id="Фигура_63" class="st1" d="M22.2,21.3h12"/>
	<path id="Фигура_63_копия" class="st1" d="M22.2,24.3h15"/>
</g>
</svg>
