<?xml version="1.0" encoding="utf-8"?>
<!-- Generator: Adobe Illustrator 21.0.2, SVG Export Plug-In . SVG Version: 6.00 Build 0)  -->
<svg version="1.1" id="Слой_1" xmlns="http://www.w3.org/2000/svg" xmlns:xlink="http://www.w3.org/1999/xlink" x="0px" y="0px"
	 viewBox="0 0 48 26.1" style="enable-background:new 0 0 48 26.1;" xml:space="preserve">
<style type="text/css">
	.st0{fill:none;}
	.st1{fill:url(#SVGID_1_);stroke:#6661B9;}
	.st2{fill:url(#SVGID_2_);stroke:#6661B9;}
</style>
<g>
	<path class="st0" d="M9.9,13.1C9.9,13.1,9.9,13.1,9.9,13.1c-1.7,0-3.1,1.4-3.1,3.1c0,0,0,0,0,0c0,1.7,1.4,3.1,3.2,3.1
		c1.7,0,3.1-1.4,3.1-3.2C13,14.5,11.6,13.1,9.9,13.1z"/>
	<linearGradient id="SVGID_1_" gradientUnits="userSpaceOnUse" x1="39.8975" y1="17.9202" x2="48.876" y2="8.9417">
		<stop  offset="0" style="stop-color:#6136C8;stop-opacity:0.5"/>
		<stop  offset="1" style="stop-color:#7436C8;stop-opacity:0.302"/>
	</linearGradient>
	<path class="st1" d="M47.5,5.8c0-0.3-0.2-0.6-0.4-0.8c-1.2-0.8-2.9-0.7-4,0.4l-8.1,6c-1.2,1.2-1.2,3.2,0,4.4l8.1,6c0,0,0,0,0,0
		c1.1,1.1,2.7,1.2,4,0.4c0.3-0.2,0.4-0.5,0.4-0.8C47.5,19,47.5,8.1,47.5,5.8z"/>
	<linearGradient id="SVGID_2_" gradientUnits="userSpaceOnUse" x1="6.957" y1="22.74" x2="27.0122" y2="2.6848">
		<stop  offset="0" style="stop-color:#3936C8;stop-opacity:0.502"/>
		<stop  offset="1" style="stop-color:#6136C8;stop-opacity:0.36"/>
	</linearGradient>
	<path class="st2" d="M27.6,0.5H5.7c-2.9,0-5.2,2.4-5.2,5.2v14.7c0,2.9,2.3,5.2,5.2,5.2h21.9c0,0,0,0,0,0c2.9,0,5.2-2.4,5.2-5.2V5.7
		v0C32.8,2.9,30.4,0.5,27.6,0.5z M9.9,19.3c-1.7,0-3.1-1.4-3.2-3.1c0,0,0,0,0,0c0-1.7,1.4-3.1,3.1-3.1c0,0,0,0,0,0
		c1.7,0,3.1,1.4,3.2,3.1C13,17.9,11.6,19.3,9.9,19.3z"/>
</g>
</svg>
