<?xml version="1.0" encoding="utf-8"?>
<!-- Generator: Adobe Illustrator 21.0.2, SVG Export Plug-In . SVG Version: 6.00 Build 0)  -->
<svg version="1.1" id="Слой_1" xmlns="http://www.w3.org/2000/svg" xmlns:xlink="http://www.w3.org/1999/xlink" x="0px" y="0px"
	 viewBox="0 0 35 31" style="enable-background:new 0 0 35 31;" xml:space="preserve">
<style type="text/css">
	.st0{fill:url(#Прямоугольник_скругл._углы_40_1_);stroke:#6661B9;}
	.st1{fill:#6661B9;}
</style>
<linearGradient id="Прямоугольник_скругл._углы_40_1_" gradientUnits="userSpaceOnUse" x1="16.787" y1="2.2005" x2="16.787" y2="28.9756" gradientTransform="matrix(1 0 0 -1 0 32)">
	<stop  offset="0" style="stop-color:#3936C8;stop-opacity:0.502"/>
	<stop  offset="1" style="stop-color:#7436C8;stop-opacity:0.302"/>
</linearGradient>
<path id="Прямоугольник_скругл._углы_40" class="st0" d="M32.5,6.8l-3.1,8.8c-0.4,1.2-1.8,1.9-3,1.5
	c-1.2-0.4-1.9-1.7-1.5-2.9c0,0,0,0,0,0l0.7-2.1L4.6,29.3c-1,0.8-2.5,0.6-3.3-0.4c-0.8-1-0.6-2.4,0.4-3.2c0,0,0,0,0,0L22.9,8.3
	l-2.4,0.2c-1.3,0.2-2.4-0.8-2.6-2s0.8-2.4,2-2.6c0,0,0,0,0.1,0L29.3,3c0.3,0,2-0.2,2.8,1C32.9,4.9,32.7,6.4,32.5,6.8z"/>
<path class="st1" d="M10.6,28.1c0.6,0,1,0.5,1,1c0,0.6-0.5,1-1,1c-0.6,0-1-0.5-1-1C9.5,28.6,10,28.1,10.6,28.1
	C10.6,28.1,10.6,28.1,10.6,28.1z"/>
<path class="st1" d="M14.4,28.1c0.6,0,1,0.5,1,1c0,0.6-0.5,1-1,1c-0.6,0-1-0.5-1-1C13.3,28.6,13.8,28.1,14.4,28.1
	C14.4,28.1,14.4,28.1,14.4,28.1z"/>
<path class="st1" d="M18.2,28.1c0.6,0,1,0.5,1,1.1c0,0.6-0.5,1-1.1,1c-0.6,0-1-0.5-1-1C17.1,28.5,17.6,28.1,18.2,28.1L18.2,28.1z"/>
<path class="st1" d="M22,28.1c0.6,0,1,0.5,1,1c0,0.6-0.5,1-1,1c-0.6,0-1-0.5-1-1C20.9,28.6,21.4,28.1,22,28.1L22,28.1z"/>
<path class="st1" d="M1.7,8.8c0.6,0,1,0.5,1,1s-0.5,1-1,1s-1-0.5-1-1l0,0C0.7,9.2,1.2,8.8,1.7,8.8z"/>
<path class="st1" d="M1.7,12.6c0.6,0,1,0.5,1,1s-0.5,1-1,1s-1-0.5-1-1l0,0C0.7,13,1.2,12.6,1.7,12.6L1.7,12.6z"/>
<path class="st1" d="M1.7,16.3c0.6,0,1,0.5,1,1c0,0.6-0.5,1-1,1c-0.6,0-1-0.5-1-1C0.7,16.8,1.2,16.3,1.7,16.3
	C1.7,16.3,1.7,16.3,1.7,16.3L1.7,16.3z"/>
<path class="st1" d="M1.7,20.1c0.6,0,1.1,0.5,1.1,1c0,0.6-0.5,1.1-1,1.1s-1.1-0.5-1.1-1c0,0,0,0,0,0C0.7,20.6,1.2,20.1,1.7,20.1
	L1.7,20.1z"/>
<path class="st1" d="M25.6,28.1c0.6,0,1,0.5,1,1c0,0.6-0.5,1-1,1c-0.6,0-1-0.5-1-1C24.5,28.6,25,28.1,25.6,28.1L25.6,28.1z"/>
<path class="st1" d="M29.4,28.1c0.6,0,1,0.5,1,1c0,0.6-0.5,1-1,1c-0.6,0-1-0.5-1-1C28.3,28.6,28.8,28.1,29.4,28.1L29.4,28.1z"/>
<path class="st1" d="M33.2,28.1c0.6,0,1,0.5,1,1.1c0,0.6-0.5,1-1.1,1c-0.6,0-1-0.5-1-1C32.1,28.5,32.6,28.1,33.2,28.1L33.2,28.1z"/>
<path class="st1" d="M1.7,0.8c0.6,0,1,0.5,1,1s-0.5,1-1,1s-1-0.5-1-1c0,0,0,0,0,0C0.7,1.2,1.2,0.8,1.7,0.8z"/>
<path class="st1" d="M1.7,4.6c0.6,0,1,0.5,1,1s-0.5,1-1,1s-1-0.5-1-1C0.7,5,1.2,4.6,1.7,4.6L1.7,4.6z"/>
</svg>
