<svg xmlns="http://www.w3.org/2000/svg" viewBox="0 0 503.84 503.84"><defs><style>.cls-1{fill:#5964aa;}</style></defs><title>inst</title><g id="Слой_2" data-name="Слой 2"><g id="Logo"><path class="cls-1" d="M502.33,148.05c-1.22-26.81-5.48-45.13-11.71-61.15a123.49,123.49,0,0,0-29.06-44.62,123.49,123.49,0,0,0-44.62-29.06C400.91,7,382.6,2.74,355.79,1.52S320.34,0,251.92,0s-77,.29-103.87,1.52S102.93,7,86.9,13.23A123.49,123.49,0,0,0,42.28,42.28,123.49,123.49,0,0,0,13.23,86.9C7,102.93,2.74,121.24,1.52,148.05S0,183.5,0,251.92s.29,77,1.52,103.87S7,400.91,13.23,416.94a123.49,123.49,0,0,0,29.06,44.62A123.49,123.49,0,0,0,86.9,490.62c16,6.23,34.34,10.49,61.15,11.71s35.45,1.52,103.87,1.52,77-.29,103.87-1.52,45.13-5.48,61.15-11.71a128.82,128.82,0,0,0,73.68-73.68c6.23-16,10.49-34.34,11.71-61.15s1.52-35.45,1.52-103.87S503.55,174.92,502.33,148.05ZM251.92,381.29A129.36,129.36,0,1,1,381.29,251.92,129.36,129.36,0,0,1,251.92,381.29ZM386.4,147.68a30.23,30.23,0,1,1,30.23-30.23A30.23,30.23,0,0,1,386.4,147.68Z"/><circle class="cls-1" cx="251.92" cy="251.92" r="83.97"/></g></g></svg>