<svg xmlns="http://www.w3.org/2000/svg" viewBox="0 0 31.41 31.42"><defs><style>.cls-1{fill:#fff;}</style></defs><title>Language</title><g id="Слой_2" data-name="Слой 2"><g id="Capa_1" data-name="Capa 1"><path class="cls-1" d="M29.19,7.65A1.25,1.25,0,0,0,28,7.08l-1.37.19A1.6,1.6,0,0,0,25.35,8s-.1.39-.28.45-.51-.16-.51-.16l-2-1.8-.29-.93L22,4.94a1.58,1.58,0,0,0-.43-.62L21,3.76a1.62,1.62,0,0,0-.77-.39s-.74-.53-1-.2a.52.52,0,0,0,0,.67L20.52,5.2l.1.11s.68.52.66.78-.56.43-.79.42a3,3,0,0,1-.65-.19l-1-.41s.15-.6,0-.78-.64-.89-1.27-.53a.53.53,0,0,0-.2.85c-.14.61-.74.77-1.51,1.28s.13,1,.13,1l.83.16a.84.84,0,0,0,1-.67h0a.84.84,0,0,1,.94-.69l.58.09A1.34,1.34,0,0,0,20,7c.35.06.7-.12,1,0s.59,1.18.59,1.18a1.6,1.6,0,0,0,.3.42s1.1,1.15,1.69,1.71.14.76-.14.74-1-.13-1-.13a1.58,1.58,0,0,0-.93.16L19.69,12a1.6,1.6,0,0,0-.52.41l-1.66,2s-.09.88-.24,1-.47.05-.67,0a9.3,9.3,0,0,1-.9-.42A.84.84,0,0,0,15,15l-.26.12a.83.83,0,0,0-.45.94s0,.56.15.63.53-.61.53-.61l.93,0s-.21.94-.07,1.15.48,0,.78.23.37.74.77.87.91-.26.91-.26a1.65,1.65,0,0,1,.7,0l1,.16.17,0s1.27.31,1.58.43.46-.12.84.1a7.83,7.83,0,0,1,1.24,1.41,1.48,1.48,0,0,0,.39.32l1.18.69A1.62,1.62,0,0,1,26,23.32l-.79,1.52a1.63,1.63,0,0,1-.75.72l-.76.35a1.63,1.63,0,0,0-.84.91l-.29.81a1.72,1.72,0,0,1-.62.79l-1.76,1.17C18.5,31,19.39,31,19.39,31a15.7,15.7,0,0,0,9.8-23.31Z"/><path class="cls-1" d="M17.43,23.77l-.67-1.25a1.62,1.62,0,0,1,0-1.47L17,20.4a.82.82,0,0,0-.41-1.1,2.1,2.1,0,0,1-.55-.3l-.56-.56a1.62,1.62,0,0,0-.79-.43l-1.39-.31a1.62,1.62,0,0,1-1.1-.89s-.48-.21-.53,0-.15.13-.38,0-1.94-2.63-1.94-2.63a1.62,1.62,0,0,1-.31-1V11.69a1.68,1.68,0,0,0-.24-.85L8,9.49a1.6,1.6,0,0,0-1.66-.75L5,9,4.66,9l-.84.15c-.31,0-.51-.1-.84-.52s.09-1.45-.23-1.51S2,8,1.8,8.43a15.69,15.69,0,0,0,13.9,23H16a1.62,1.62,0,0,0,1.57-1.76h0a1.41,1.41,0,0,1,0-.54,19.62,19.62,0,0,0,.65-2.66,12.6,12.6,0,0,0-.67-2.37A1.69,1.69,0,0,0,17.43,23.77Z"/><path class="cls-1" d="M6,5.05l2.38-.33a1.62,1.62,0,0,0,.56-.19l.44-.24a1.62,1.62,0,0,1,1.22-.13l.54.15a1.66,1.66,0,0,0,.54.06l1.21-.06a1.63,1.63,0,0,0,1.28-.75s.12-.46.34-.54a2.43,2.43,0,0,1,.95.15,2,2,0,0,0,.42,0L18.1,3a.81.81,0,0,0,.54-.27l.49-.53A.67.67,0,0,1,19.28,2l.48-.32a1.67,1.67,0,0,1,1.15-.25s2.8.82,1.48.05A15.74,15.74,0,0,0,15.7,0,16,16,0,0,0,3.59,5.71c-.62.76-.21,1.16.21.91C4.69,6.08,5.87,5.06,6,5.05ZM16.41,1.54l.76-.42a1.61,1.61,0,0,1,1.59,0,.39.39,0,0,1,.24.44c-.09.3-1.12.55-1.12.55a1.67,1.67,0,0,1-.82.32l-1,.1s-.62,0-.64-.41.88-.56.88-.56Zm-4.79.15c.39,0,.25.29.71.3s.44-.47.92-.3a.72.72,0,0,1,.51.88c-.11.23-1.49.39-1.49.39a2.35,2.35,0,0,1-1.23,0s-.39-.13-.45-.38S11.23,1.72,11.62,1.69Z"/></g></g></svg>