<svg xmlns="http://www.w3.org/2000/svg" viewBox="0 0 52.86 40.93"><defs><style>.cls-1{fill:#839196;}.cls-2{fill:#96a7aa;}.cls-3{fill:#a8b6ba;}</style></defs><title>mastercard</title><g id="Слой_2" data-name="Слой 2"><g id="Слой_1-2" data-name="Слой 1"><path class="cls-1" d="M9.68,38.42a1.46,1.46,0,1,1,2.9,0,1.46,1.46,0,1,1-2.9,0Zm3.91,0V36H12.54v.6a1.8,1.8,0,0,0-1.5-.7,2.51,2.51,0,0,0,0,5,1.68,1.68,0,0,0,1.5-.7v.6H13.6Zm35.21,0a1.46,1.46,0,1,1,2.91,0,1.46,1.46,0,1,1-2.91,0Zm3.86,0V34.11H51.62v2.5a1.8,1.8,0,0,0-1.5-.7,2.51,2.51,0,0,0,0,5,1.69,1.69,0,0,0,1.5-.7v.6h1.05ZM26.54,36.81A1.17,1.17,0,0,1,27.74,38H25.23A1.27,1.27,0,0,1,26.54,36.81Zm0-.9a2.51,2.51,0,0,0,0,5,3.08,3.08,0,0,0,2-.65l-.5-.76a2.38,2.38,0,0,1-1.4.5,1.35,1.35,0,0,1-1.46-1.15h3.56v-.4A2.22,2.22,0,0,0,26.54,35.92Zm12.59,2.51a1.46,1.46,0,1,1,2.91,0,1.46,1.46,0,1,1-2.91,0Zm3.86,0V36H41.93v.6a1.8,1.8,0,0,0-1.5-.7,2.51,2.51,0,0,0,0,5,1.68,1.68,0,0,0,1.5-.7v.6H43Zm-9.73,0a2.41,2.41,0,0,0,2.56,2.51,2.51,2.51,0,0,0,1.71-.55l-.5-.86a2,2,0,0,1-1.25.45,1.42,1.42,0,0,1-1.45-1.55,1.48,1.48,0,0,1,1.45-1.56,2,2,0,0,1,1.25.45l.5-.85a2.5,2.5,0,0,0-1.71-.55A2.41,2.41,0,0,0,33.26,38.42ZM46.7,35.92a1.4,1.4,0,0,0-1.25.7V36H44.39v4.81h1.05V38.12c0-.81.35-1.26,1-1.26a3.11,3.11,0,0,1,.65.1l.3-1A3.74,3.74,0,0,0,46.7,35.92Zm-28,.5a3.41,3.41,0,0,0-2-.5c-1.2,0-2,.6-2,1.56,0,.8.6,1.25,1.66,1.4l.5.05c.55.1.85.25.85.5s-.4.6-1.1.6a2.75,2.75,0,0,1-1.6-.5l-.5.8a3.54,3.54,0,0,0,2.06.6c1.4,0,2.21-.65,2.21-1.56s-.65-1.3-1.66-1.46l-.5,0c-.45,0-.8-.15-.8-.45s.35-.55.9-.55a3.63,3.63,0,0,1,1.5.4Zm13.49-.5a1.41,1.41,0,0,0-1.25.7V36H29.9v4.81H31V38.12c0-.81.35-1.26,1-1.26a3.11,3.11,0,0,1,.65.1l.3-1A3.75,3.75,0,0,0,32.2,35.92Zm-8.93.1H21.57V34.56H20.52V36h-1v1h1v2.21c0,1.11.45,1.76,1.66,1.76a2.84,2.84,0,0,0,1.31-.35l-.3-.9a1.65,1.65,0,0,1-.9.25c-.5,0-.7-.3-.7-.8V37h1.71V36ZM7.68,40.83v-3a1.76,1.76,0,0,0-1.91-1.9,2,2,0,0,0-1.7.85,1.76,1.76,0,0,0-1.61-.85,1.61,1.61,0,0,0-1.4.7V36H0v4.81H1.05V38.17c0-.85.45-1.25,1.15-1.25s1.05.45,1.05,1.25v2.66H4.31V38.17a1.11,1.11,0,0,1,1.15-1.25c.7,0,1.05.45,1.05,1.25v2.66H7.68Z"/><rect class="cls-2" x="19.28" y="3.49" width="14.29" height="25.67"/><path class="cls-1" d="M20.19,16.33A16.37,16.37,0,0,1,26.41,3.49,16.32,16.32,0,1,0,16.33,32.65a16.24,16.24,0,0,0,10.07-3.49A16.32,16.32,0,0,1,20.19,16.33Z"/><path class="cls-3" d="M52.86,16.33a16.32,16.32,0,0,1-26.4,12.84,16.37,16.37,0,0,0,0-25.67,16.32,16.32,0,0,1,26.4,12.84Z"/></g></g></svg>