<svg xmlns="http://www.w3.org/2000/svg" viewBox="0 0 195 195"><defs><style>.cls-1{fill:#5964aa;}</style></defs><title>Medium</title><g id="Слой_2" data-name="Слой 2"><g id="Слой_1-2" data-name="Слой 1"><g id="Page-1"><path class="cls-1" d="M137.25,0H57.75A57.75,57.75,0,0,0,0,57.75v79.5A57.75,57.75,0,0,0,57.75,195h79.5A57.75,57.75,0,0,0,195,137.25V57.75A57.75,57.75,0,0,0,137.25,0ZM162,46.2l-10.46,10a3.06,3.06,0,0,0-1.16,2.93v73.67a3.06,3.06,0,0,0,1.16,2.93l10.21,10V148H110.38v-2.2L121,135.53c1-1,1-1.35,1-2.93V73L92.59,147.76h-4L54.36,73v50.07a6.91,6.91,0,0,0,1.9,5.75L70,145.55v2.2H31v-2.2l13.76-16.69a6.66,6.66,0,0,0,1.77-5.75V65.22a5.07,5.07,0,0,0-1.65-4.28L32.65,46.2V44h38L100,108.38,125.79,44H162Z"/></g></g></g></svg>