<svg xmlns="http://www.w3.org/2000/svg" viewBox="0 0 804.6 804.6"><defs><style>.cls-1{fill:#5964aa;}</style></defs><title>Ку</title><g id="Слой_2" data-name="Слой 2"><g id="Режим_изоляции" data-name="Режим изоляции"><path class="cls-1" d="M486.3,538.7a132.41,132.41,0,0,1-84.1,24.5,131.42,131.42,0,0,1-83.7-25.3,10.87,10.87,0,0,0-15.3,15.3,154.46,154.46,0,0,0,99.4,31,154.46,154.46,0,0,0,99.4-31v1.6a11.24,11.24,0,0,0-15.7-16.1Z"/><path class="cls-1" d="M348.9,442.6a40.3,40.3,0,1,0-40.3,40.3A40.37,40.37,0,0,0,348.9,442.6Z"/><path class="cls-1" d="M494.8,403.7a40.3,40.3,0,0,0,0,80.6l-.3,1.5h2a41.09,41.09,0,0,0-1.7-82.1Z"/><path class="cls-1" d="M402.3,0C180.12,0,0,180.12,0,402.3S180.12,804.6,402.3,804.6,804.6,624.48,804.6,402.3,624.48,0,402.3,0ZM638.1,455.8a130.68,130.68,0,0,1,0,17.7c0,90.2-105,163.4-234.5,163.4S169.1,563.6,169.1,473.5a130.7,130.7,0,0,1,0-17.7,56.89,56.89,0,0,1-15.8-10.6,58.72,58.72,0,0,1,80.4-85.6,288.17,288.17,0,0,1,156.9-49.5l29.7-139.6v-.2a12.46,12.46,0,0,1,14.9-9.5l98.6,19.7a40.19,40.19,0,1,1-5.3,24.6L442.4,187,416.3,312.5A286,286,0,0,1,571.2,362a58.36,58.36,0,1,1,66.9,93.8Z"/></g></g></svg>