<svg xmlns="http://www.w3.org/2000/svg" viewBox="0 0 65.35 41"><defs><style>.cls-1{fill:#a8b6ba;}.cls-2{fill:#839196;}</style></defs><title>visa</title><g id="Слой_2" data-name="Слой 2"><g id="Слой_1-2" data-name="Слой 1"><rect class="cls-1" y="35.1" width="65.35" height="5.9"/><rect class="cls-2" width="65.35" height="5.9"/><path class="cls-2" d="M26.16,12.4,19.41,28.63H15L11.68,15.68a1.78,1.78,0,0,0-1-1.43,17.42,17.42,0,0,0-4.11-1.38l.1-.47h7.09a2,2,0,0,1,1.92,1.65l1.75,9.39,4.33-11h4.38ZM43.42,23.33c0-4.28-5.87-4.52-5.84-6.43,0-.58.56-1.2,1.77-1.36a7.8,7.8,0,0,1,4.11.73l.73-3.44a11.19,11.19,0,0,0-3.9-.72c-4.12,0-7,2.2-7,5.36,0,2.34,2.07,3.64,3.65,4.42s2.17,1.31,2.16,2c0,1.09-1.3,1.57-2.49,1.59a8.66,8.66,0,0,1-4.28-1L31.53,28a12.61,12.61,0,0,0,4.63.86c4.38,0,7.24-2.18,7.26-5.55m10.88,5.3h3.85L54.78,12.4H51.23a1.9,1.9,0,0,0-1.78,1.19l-6.25,15h4.38l.87-2.42h5.35Zm-4.65-5.75,2.19-6.09,1.26,6.09ZM32.11,12.4,28.67,28.63H24.5l3.44-16.22Z"/></g></g></svg>