<svg xmlns="http://www.w3.org/2000/svg" viewBox="0 0 216.01 158.33"><defs><style>.cls-1,.cls-3{fill:#839196;}.cls-2{fill:#a8b6ba;}.cls-3{font-size:47px;font-family:Roboto-Bold, Roboto;font-weight:700;}.cls-4{letter-spacing:-0.01em;}</style></defs><title>voucher</title><g id="Слой_2" data-name="Слой 2"><g id="Слой_1-2" data-name="Слой 1"><path class="cls-1" d="M216,4.13A4.13,4.13,0,0,0,211.88,0H4.13A4.13,4.13,0,0,0,0,4.13v8.81a4.13,4.13,0,0,0,4.13,4.13H6.28V7H209.73V17.07h2.15A4.13,4.13,0,0,0,216,12.94V4.13Z"/><rect class="cls-2" x="22.01" y="36.81" width="9.18" height="25.37"/><rect class="cls-2" x="40.39" y="36.81" width="9.18" height="25.37"/><rect class="cls-2" x="58.75" y="36.81" width="9.18" height="25.37"/><rect class="cls-2" x="77.12" y="36.81" width="18.37" height="25.37"/><rect class="cls-2" x="104.67" y="36.81" width="9.18" height="25.37"/><rect class="cls-2" x="123.04" y="36.81" width="9.18" height="25.37"/><rect class="cls-2" x="141.41" y="36.81" width="9.18" height="27.07"/><rect class="cls-2" x="159.77" y="36.81" width="18.37" height="25.37"/><rect class="cls-2" x="187.33" y="36.81" width="9.18" height="25.37"/><text class="cls-3" transform="translate(0.9 145.59)"><tspan class="cls-4">V</tspan><tspan x="30.43" y="0">OUCHER</tspan></text><path class="cls-1" d="M5.28,6H210.73v96.15L188,91,168.3,101,148.18,91,127.66,101,107.81,91,88.37,101,67.42,91,47.3,101,27.42,91,5.28,102.18Zm83,90,19.49-10.06L127.7,96,148.2,86l20.07,10,19.66-10,18.28,9V10.49H9.79V94.85l17.63-8.91L47.31,96,67.38,86Z"/><path class="cls-1" d="M209.73,7v93.55L188,89.87,168.29,99.92l-20.1-10.05-20.52,10-19.87-10-19.45,10L67.41,89.87,47.3,99.92l-19.88-10L6.28,100.56V7H209.73M8.79,96.47l18.63-9.41,19.89,10,20.08-10,20.92,10,19.48-10.05,19.9,10.05,20.51-10,20.08,10,19.67-10,19.27,9.44v-87H8.79v87M211.73,5H4.28v98.82l2.9-1.47L27.42,92.12l19,9.59.9.45.9-.45,19.23-9.62,20.06,9.63.9.43.88-.46,18.54-9.57,19,9.58.89.45.89-.44,19.63-9.61,19.22,9.61.9.45.9-.46L188,92.11l20.86,10.22,2.88,1.41V5ZM10.79,11.49H205.22v81.8l-16.39-8-.9-.44-.89.45-18.77,9.58-19.18-9.59-.89-.44-.89.44L127.7,94.88l-19-9.61-.91-.46-.91.47-18.59,9.6-20-9.61-.88-.42-.88.44L47.31,94.87l-19-9.6-.9-.46-.9.46L10.79,93.22V11.49Z"/><rect class="cls-1" x="133.04" y="128.2" width="16.63" height="8.13"/></g></g></svg>