<svg xmlns="http://www.w3.org/2000/svg" viewBox="0 0 384.05 504.04"><defs><style>.cls-1{fill:#fff;stroke:#fff;stroke-miterlimit:10;stroke-width:10px;}</style></defs><title>white_bon</title><g id="Слой_2" data-name="Слой 2"><g id="Слой_1-2" data-name="Слой 1"><path class="cls-1" d="M204.07,5V203.91s35.25,0,52,0c33,0,60.86,12.06,83.86,35.48,15.49,15.76,26.07,34.49,32.58,55.55a135.52,135.52,0,0,1,6,28.7,439.65,439.65,0,0,1,0,44.63c-.54,10.73-.76,17.37-2.47,25.92a139.81,139.81,0,0,1-20.07,49.43A124.18,124.18,0,0,1,315,483.37a110.43,110.43,0,0,1-40,14.35A108.08,108.08,0,0,1,258.55,499H5V461.43s167.69-.08,250.33.05c23.27,0,42.62-8.57,58.63-25.09,11.92-12.3,19.62-27,23.89-43.54a101.46,101.46,0,0,0,3.26-25.43c0-10.62.09-21.24,0-31.86a101.11,101.11,0,0,0-16.56-55.64,86.13,86.13,0,0,0-32.43-29.78,73.37,73.37,0,0,0-26.19-8.06,88.16,88.16,0,0,0-9.05-.44c-7.19-.07-52.81,0-52.81,0V420H166.43V241.64H125.56V420H87.94V241.64H60.49V203.91H87.94V5h37.62V203.91h40.87V5Z"/></g></g></svg>